<svg width="24" height="24" viewBox="0 0 24 24" fill="none" xmlns="http://www.w3.org/2000/svg">
<path fill-rule="evenodd" clip-rule="evenodd" d="M17.8573 20.4168C19.7323 20.4168 21.2503 18.8978 21.2503 17.0238V14.3238C20.0103 14.3238 19.0103 13.3238 19.0103 12.0848C19.0103 10.8448 20.0103 9.84576 21.2503 9.84576L21.2483 7.14276C21.2483 5.26876 19.7303 3.74976 17.8563 3.74976H6.1443C4.2703 3.74976 2.7513 5.26876 2.7513 7.14276L2.7503 9.93276C3.9893 9.93276 4.9893 10.8448 4.9893 12.0848C4.9893 13.3238 3.9893 14.3238 2.7503 14.3238V17.0238C2.7503 18.8978 4.2683 20.4168 6.1423 20.4168H17.8573Z" stroke="white" stroke-width="1.5" stroke-linecap="round" stroke-linejoin="round"/>
<path opacity="0.4" fill-rule="evenodd" clip-rule="evenodd" d="M11.9998 13.8543L13.7398 14.7693C13.9028 14.8543 14.0938 14.7163 14.0628 14.5353L13.7298 12.5963L15.1388 11.2253C15.2708 11.0963 15.1978 10.8733 15.0158 10.8463L13.0698 10.5633L12.1988 8.79929C12.1178 8.63429 11.8828 8.63429 11.8008 8.79929L10.9298 10.5633L8.9848 10.8463C8.8028 10.8733 8.7298 11.0963 8.8618 11.2253L10.2698 12.5963L9.9368 14.5353C9.9058 14.7163 10.0968 14.8543 10.2598 14.7693L11.9998 13.8543Z" stroke="white" stroke-width="1.5" stroke-linecap="round" stroke-linejoin="round"/>
</svg>
