<svg width="15" height="15" viewBox="0 0 15 15" fill="none" xmlns="http://www.w3.org/2000/svg">
<g id="atHome">
<g id="Home">
<path id="Home_2" d="M5.71483 12.9888V11.072C5.71482 10.5863 6.10979 10.1917 6.59902 10.1886H8.39538C8.8868 10.1886 9.28517 10.5841 9.28517 11.072V11.072V12.9833C9.28516 13.4045 9.62751 13.7469 10.0518 13.75H11.2774C11.8498 13.7515 12.3992 13.5267 12.8045 13.1254C13.2097 12.7241 13.4375 12.1792 13.4375 11.611V6.16615C13.4375 5.70712 13.2325 5.2717 12.8779 4.97719L8.71436 1.67142C7.98657 1.0932 6.94711 1.11188 6.24087 1.71587L2.16688 4.97719C1.79546 5.26301 1.57347 5.69973 1.5625 6.16615V11.6054C1.5625 12.7898 2.52961 13.75 3.72261 13.75H4.92018C5.12448 13.7515 5.32093 13.6719 5.46592 13.529C5.61091 13.3861 5.69245 13.1917 5.69245 12.9888H5.71483Z" fill="white"/>
</g>
</g>
</svg>
