<svg width="19" height="19" viewBox="0 0 19 19" fill="none" xmlns="http://www.w3.org/2000/svg">
<path fill-rule="evenodd" clip-rule="evenodd" d="M2.97097 3.60853C1.56507 3.9561 0.661853 5.05594 0.410814 6.23936C0.158412 7.4292 0.560151 8.77411 1.81976 9.49887L3.85986 10.6727L9.06762 8.0939C9.9856 7.63933 10.9122 8.69494 10.3424 9.54624L7.10857 14.3782L8.00464 16.5451C8.55998 17.888 9.84146 18.4607 11.054 18.3647C12.26 18.2692 13.4676 17.5162 13.9945 16.1672L18.4512 4.75728C19.3851 2.3664 17.3542 0.0526577 14.8624 0.668684L2.97097 3.60853ZM6.41926 12.7112L8.05298 10.2702L5.42336 11.5723L5.6876 11.7244C5.9646 11.8837 6.17725 12.126 6.29938 12.4213L6.41926 12.7112Z" fill="#FEFEFE"/>
</svg>
