<svg width="14" height="14" viewBox="0 0 14 14" fill="none" xmlns="http://www.w3.org/2000/svg">
<path opacity="0.4" d="M7.00008 12.8332C10.2217 12.8332 12.8334 10.2215 12.8334 6.99984C12.8334 3.77818 10.2217 1.1665 7.00008 1.1665C3.77842 1.1665 1.16675 3.77818 1.16675 6.99984C1.16675 10.2215 3.77842 12.8332 7.00008 12.8332Z" fill="white"/>
<path d="M9.16414 9.29253C9.08831 9.29253 9.01248 9.27503 8.94248 9.22836L7.13414 8.14919C6.68498 7.88086 6.35248 7.29169 6.35248 6.77253V4.38086C6.35248 4.14169 6.55081 3.94336 6.78998 3.94336C7.02914 3.94336 7.22748 4.14169 7.22748 4.38086V6.77253C7.22748 6.98253 7.40248 7.29169 7.58331 7.39669L9.39164 8.47586C9.60164 8.59836 9.66581 8.86669 9.54331 9.07669C9.45581 9.21669 9.30998 9.29253 9.16414 9.29253Z" fill="white"/>
</svg>
