<svg width="8" height="8" viewBox="0 0 8 8" fill="none" xmlns="http://www.w3.org/2000/svg">
<path d="M5.33725 3.91772L7.74077 1.50518C7.90835 1.33698 8.00021 1.11407 8.00021 0.87798C8.00021 0.641893 7.90835 0.418978 7.74077 0.250779C7.40664 -0.083593 6.8262 -0.083593 6.49207 0.250779L4.08854 2.66434L1.68401 0.250779C1.34987 -0.083593 0.769434 -0.083593 0.435302 0.250779C0.268741 0.418978 0.17688 0.641893 0.17688 0.87798C0.17688 1.11407 0.268741 1.33698 0.435302 1.50518L2.83883 3.91772L0.435302 6.33027C0.268741 6.49847 0.17688 6.72138 0.17688 6.95747C0.17688 7.19356 0.268741 7.41647 0.435302 7.58467C0.769434 7.91904 1.34987 7.91904 1.68401 7.58467L4.08854 5.17111L6.49207 7.58467C6.65964 7.75186 6.88071 7.84406 7.11693 7.84406C7.35314 7.84406 7.57421 7.75186 7.74077 7.58467C7.90835 7.41647 8.00021 7.19356 8.00021 6.95747C8.00021 6.72138 7.90835 6.49847 7.74077 6.33027L5.33725 3.91772Z" fill="white"/>
</svg>
