<svg width="28" height="28" viewBox="0 0 28 28" fill="none" xmlns="http://www.w3.org/2000/svg">
<path d="M24.3367 9.76491L16.2517 3.30157C15.0033 2.29824 12.985 2.29824 11.7483 3.28991L3.66333 9.76491C2.75333 10.4882 2.17 12.0166 2.36833 13.1599L3.92 22.4466C4.2 24.1032 5.78667 25.4449 7.46667 25.4449H20.5333C22.2017 25.4449 23.8 24.0916 24.08 22.4466L25.6317 13.1599C25.8183 12.0166 25.235 10.4882 24.3367 9.76491ZM14 18.0832C12.39 18.0832 11.0833 16.7766 11.0833 15.1666C11.0833 13.5566 12.39 12.2499 14 12.2499C15.61 12.2499 16.9167 13.5566 16.9167 15.1666C16.9167 16.7766 15.61 18.0832 14 18.0832Z" fill="white"/>
</svg>
